<svg id="Layer_1" data-name="Layer 1" xmlns="http://www.w3.org/2000/svg" viewBox="0 0 124 40"><defs><style>.cls-1{fill:#f90;}.cls-1,.cls-2{fill-rule:evenodd;}</style></defs><title>Artboard 1</title><path class="cls-1" d="M76.45,30.2c-7,5.15-17.08,7.88-25.79,7.88a46.71,46.71,0,0,1-31.5-12c-.65-.59-.07-1.4.72-.94a63.38,63.38,0,0,0,31.51,8.36,62.59,62.59,0,0,0,24-4.92C76.61,28.07,77.6,29.35,76.45,30.2Z"/><path class="cls-1" d="M79.35,26.89c-.89-1.14-5.9-.54-8.14-.27-.69.08-.79-.52-.18-.95,4-2.8,10.53-2,11.29-1.05s-.2,7.5-3.94,10.63c-.57.48-1.12.22-.87-.41C78.36,32.74,80.24,28,79.35,26.89Z"/><path class="cls-2" d="M71.36,5.87V3.14a.67.67,0,0,1,.69-.68H84.26a.69.69,0,0,1,.71.69V5.48a4,4,0,0,1-.92,1.71l-6.33,9a13.62,13.62,0,0,1,7,1.5,1.22,1.22,0,0,1,.64,1.06v2.91c0,.4-.43.86-.89.62a14.08,14.08,0,0,0-12.9,0c-.43.23-.87-.23-.87-.63V18.94a3.32,3.32,0,0,1,.45-1.87L78.45,6.56H72.07A.68.68,0,0,1,71.36,5.87Z"/><path class="cls-2" d="M26.83,22.88H23.12a.7.7,0,0,1-.67-.63V3.19a.69.69,0,0,1,.71-.68h3.46a.72.72,0,0,1,.68.64V5.63h.07A4.9,4.9,0,0,1,32.26,2.1c2.33,0,3.78,1.13,4.82,3.53A5.3,5.3,0,0,1,42.22,2.1a5.24,5.24,0,0,1,4.29,2.09c1.18,1.6.94,3.93.94,6v12a.7.7,0,0,1-.72.68H43a.69.69,0,0,1-.66-.68V12.09a24.89,24.89,0,0,0-.1-3.57,1.94,1.94,0,0,0-2.18-1.64,2.45,2.45,0,0,0-2.22,1.56,11.57,11.57,0,0,0-.35,3.65V22.2a.7.7,0,0,1-.72.68H33.07a.69.69,0,0,1-.66-.68V12.09c0-2.13.35-5.25-2.28-5.25s-2.57,3-2.57,5.25V22.2A.7.7,0,0,1,26.83,22.88Z"/><path class="cls-2" d="M95.48,2.1C101,2.1,104,6.84,104,12.85c0,5.82-3.29,10.43-8.49,10.43-5.41,0-8.36-4.73-8.36-10.63S90.1,2.1,95.48,2.1Zm0,3.89c-2.74,0-2.91,3.73-2.91,6.06s0,7.3,2.88,7.3,3-4,3-6.46a17.8,17.8,0,0,0-.55-5.05A2.34,2.34,0,0,0,95.51,6Z"/><path class="cls-2" d="M111.12,22.88h-3.7a.7.7,0,0,1-.67-.68V3.13a.7.7,0,0,1,.71-.62h3.44a.7.7,0,0,1,.66.54V6h.07c1-2.6,2.5-3.85,5.07-3.85A4.86,4.86,0,0,1,121,4.35c1,1.52,1,4.09,1,5.94v12a.7.7,0,0,1-.71.6h-3.72a.7.7,0,0,1-.67-.6V11.93c0-2.08.25-5.13-2.32-5.13a2.44,2.44,0,0,0-2.15,1.52,8.47,8.47,0,0,0-.59,3.61V22.2A.7.7,0,0,1,111.12,22.88Z"/><path class="cls-2" d="M61.63,13.78a7.28,7.28,0,0,1-.69,3.94,3,3,0,0,1-2.57,1.69c-1.43,0-2.26-1.09-2.26-2.7C56.11,13.55,59,13,61.63,13Zm3.75,9a.77.77,0,0,1-.88.09,9.2,9.2,0,0,1-2.13-2.47c-2,2.07-3.48,2.69-6.12,2.69-3.13,0-5.56-1.93-5.56-5.78a6.29,6.29,0,0,1,4-6.07c2-.89,4.83-1,7-1.29V9.52a4.79,4.79,0,0,0-.45-2.7,2.48,2.48,0,0,0-2.08-1,2.83,2.83,0,0,0-3,2.23.79.79,0,0,1-.64.68l-3.6-.39a.65.65,0,0,1-.56-.78c.83-4.36,4.77-5.68,8.31-5.68a8.4,8.4,0,0,1,5.59,1.85c1.81,1.69,1.63,3.94,1.63,6.39V16a5.07,5.07,0,0,0,1.41,3.44c.23.34.29.74,0,1-.76.63-2.1,1.8-2.84,2.46Z"/><path class="cls-2" d="M12.94,13.78a7.28,7.28,0,0,1-.69,3.94,3,3,0,0,1-2.57,1.69c-1.43,0-2.26-1.09-2.26-2.7,0-3.16,2.84-3.74,5.52-3.74Zm3.75,9a.77.77,0,0,1-.88.09,9.39,9.39,0,0,1-2.13-2.47c-2,2.07-3.48,2.69-6.12,2.69C4.43,23.14,2,21.21,2,17.36a6.29,6.29,0,0,1,4-6.07c2-.89,4.83-1,7-1.29V9.52a4.79,4.79,0,0,0-.45-2.7,2.48,2.48,0,0,0-2.08-1,2.83,2.83,0,0,0-3,2.23.79.79,0,0,1-.64.68l-3.6-.39a.66.66,0,0,1-.56-.78c.83-4.36,4.77-5.68,8.31-5.68a8.39,8.39,0,0,1,5.59,1.85c1.81,1.69,1.64,3.94,1.64,6.39V16a5.07,5.07,0,0,0,1.4,3.44.71.71,0,0,1,0,1c-.76.63-2.11,1.8-2.85,2.46Z"/></svg>