<svg id="Layer_1" data-name="Layer 1" xmlns="http://www.w3.org/2000/svg" xmlns:xlink="http://www.w3.org/1999/xlink" viewBox="0 0 1124.76 354.89"><defs><style>.cls-1{fill:url(#New_Gradient_Swatch_1);}.cls-2{fill:url(#New_Gradient_Swatch_1-2);}.cls-3{fill:url(#New_Gradient_Swatch_1-3);}.cls-4{fill:url(#New_Gradient_Swatch_1-4);}.cls-5{fill:url(#New_Gradient_Swatch_1-5);}.cls-6{fill:url(#New_Gradient_Swatch_1-6);}</style><linearGradient id="New_Gradient_Swatch_1" x1="170.87" y1="-134.27" x2="1366.05" y2="333.08" gradientUnits="userSpaceOnUse"><stop offset="0" stop-color="#f26c3f"/><stop offset="0.26" stop-color="#eb247d"/><stop offset="0.55" stop-color="#945ca3"/><stop offset="0.94" stop-color="#47c0ef"/></linearGradient><linearGradient id="New_Gradient_Swatch_1-2" x1="-2.96" y1="310.3" x2="1192.22" y2="777.64" xlink:href="#New_Gradient_Swatch_1"/><linearGradient id="New_Gradient_Swatch_1-3" x1="27.77" y1="231.71" x2="1222.95" y2="699.05" xlink:href="#New_Gradient_Swatch_1"/><linearGradient id="New_Gradient_Swatch_1-4" x1="60.56" y1="147.84" x2="1255.74" y2="615.18" xlink:href="#New_Gradient_Swatch_1"/><linearGradient id="New_Gradient_Swatch_1-5" x1="100.8" y1="44.93" x2="1295.98" y2="512.28" xlink:href="#New_Gradient_Swatch_1"/><linearGradient id="New_Gradient_Swatch_1-6" x1="114.95" y1="8.74" x2="1310.13" y2="476.09" xlink:href="#New_Gradient_Swatch_1"/></defs><title>Boxit Logo Nuevo</title><path class="cls-1" d="M1245,278.85a17.58,17.58,0,0,1-17.56,17.61A17.56,17.56,0,1,1,1245,278.85Zm-3.72,0a13.76,13.76,0,1,0-13.84,13.74A13.61,13.61,0,0,0,1241.28,278.85Zm-9.55,2.33,3.67,5.57h-4.29l-2.69-4.85h-3.82v4.85h-3.71V270H1228c4.44,0,6.92,2.12,6.92,5.79A5.48,5.48,0,0,1,1231.73,281.18Zm-7.13-2.27H1228c2.12,0,3.36-1.09,3.36-3S1230.13,273,1228,273h-3.41Z" transform="translate(-120.24 -207)"/><path class="cls-2" d="M358.79,333.6l-90.57-52.29a38.25,38.25,0,0,0-38.27,0L151.1,326.83V214.68l-30.86,22.46V471.32a38.28,38.28,0,0,0,19.14,33.15L230,556.76a38.3,38.3,0,0,0,38.27,0l90.57-52.29a38.28,38.28,0,0,0,19.14-33.15V366.75A38.27,38.27,0,0,0,358.79,333.6ZM340.24,453.83a26.81,26.81,0,0,1-13.41,23.23L263.36,513.7a27.18,27.18,0,0,1-27,0L172.9,477.06a26.82,26.82,0,0,1-13.42-23.23V380.55a26.83,26.83,0,0,1,13.42-23.23l63.46-36.64a27.24,27.24,0,0,1,27,0l63.47,36.64a26.82,26.82,0,0,1,13.41,23.23Z" transform="translate(-120.24 -207)"/><path class="cls-3" d="M665.6,430.55c0,75.32-53.24,128.09-128.08,128.09-75.32,0-128.09-52.77-128.09-128.09,0-74.84,52.77-127.12,128.09-127.12C612.36,303.43,665.6,355.71,665.6,430.55ZM446.85,431c0,56.61,37.42,95,90.67,95,52.76,0,90.66-38.38,90.66-95,0-55.65-37.9-94.5-90.66-94.5C484.27,336.53,446.85,375.38,446.85,431Z" transform="translate(-120.24 -207)"/><path class="cls-4" d="M721.24,304.86l67.16,96.43,68.12-96.43h41.26L813.34,427.19,904,557.2H860.36l-72-103.62L714,557.2H671.82l92.11-130L678.06,304.86Z" transform="translate(-120.24 -207)"/><path class="cls-5" d="M994.19,232.43c0,14.38-10.56,25.42-24.47,25.42s-24.46-11-24.46-25.42c0-14.88,10.55-25.43,24.46-25.43S994.19,217.55,994.19,232.43Zm-5.76,72.43V557.2H951.5V304.86Z" transform="translate(-120.24 -207)"/><path class="cls-6" d="M1200.46,539.93c-17.75,12-36.94,18.71-57.08,18.71-36.94.48-64.29-21.59-64.29-71.48V341.8h-36.46V312.54h36.46v-66.2H1116v66.2h80.12V341.8H1116V480.92c0,30.7,12,43.18,33.58,43.18q19.42-.72,40.3-13Z" transform="translate(-120.24 -207)"/></svg>