<svg id="Layer_1" data-name="Layer 1" xmlns="http://www.w3.org/2000/svg" viewBox="0 0 160 80"><defs><style>.cls-1{fill:#a82871;}.cls-2{fill:#00b4cb;}</style></defs><title>Artboard 1</title><g id="_Group_" data-name="&lt;Group&gt;"><path id="_Compound_Path_" data-name="&lt;Compound Path&gt;" class="cls-1" d="M23.2,58.85a22,22,0,0,1-5.83-.78A19.57,19.57,0,0,1,12,55.75a20.24,20.24,0,0,1-4.35-3.62v5.61H2.05V1.62H7.68v21.7a18.41,18.41,0,0,1,4.5-3.81,20.94,20.94,0,0,1,11-3,22.11,22.11,0,0,1,8.45,1.6,20.25,20.25,0,0,1,6.65,4.46,19.53,19.53,0,0,1,4.3,6.78,23.42,23.42,0,0,1,1.49,8.43,22.36,22.36,0,0,1-1.54,8.33,20.29,20.29,0,0,1-4.33,6.72,19.82,19.82,0,0,1-6.66,4.45A21.48,21.48,0,0,1,23.2,58.85Zm0-37.14A15.27,15.27,0,0,0,17,23a15.53,15.53,0,0,0-8.18,8.52,16.8,16.8,0,0,0,0,12.37A15.89,15.89,0,0,0,12,48.92,15.44,15.44,0,0,0,17,52.35a15,15,0,0,0,6.23,1.27,15.43,15.43,0,0,0,6.4-1.27A14.56,14.56,0,0,0,34.4,49a15.15,15.15,0,0,0,3.06-5,18.16,18.16,0,0,0,0-12.34,15.6,15.6,0,0,0-3.07-5.09A14.55,14.55,0,0,0,29.57,23,15.12,15.12,0,0,0,23.19,21.71Z"/><path id="_Compound_Path_2" data-name="&lt;Compound Path&gt;" class="cls-1" d="M66.89,58.85a23.85,23.85,0,0,1-8.72-1.55,20.71,20.71,0,0,1-6.93-4.4,19.7,19.7,0,0,1-4.53-6.78,22.62,22.62,0,0,1-1.59-8.54,22.2,22.2,0,0,1,1.6-8.51,19.33,19.33,0,0,1,4.53-6.7A21.13,21.13,0,0,1,58.17,18a23.93,23.93,0,0,1,8.72-1.55A24.26,24.26,0,0,1,75.65,18a21,21,0,0,1,7,4.35,19.4,19.4,0,0,1,4.54,6.7,22.23,22.23,0,0,1,1.59,8.51,22.61,22.61,0,0,1-1.58,8.54,19.77,19.77,0,0,1-4.54,6.78,20.69,20.69,0,0,1-7,4.4A24.18,24.18,0,0,1,66.89,58.85Zm0-37.14a17.74,17.74,0,0,0-6.83,1.23A15.35,15.35,0,0,0,55,26.33a14.75,14.75,0,0,0-3.2,5,17.51,17.51,0,0,0-1.12,6.23,17.71,17.71,0,0,0,1.12,6.31,14.56,14.56,0,0,0,3.2,5,15.59,15.59,0,0,0,5.09,3.43,17.12,17.12,0,0,0,6.81,1.28,17.48,17.48,0,0,0,6.86-1.28,15.82,15.82,0,0,0,5.13-3.43,14.68,14.68,0,0,0,3.19-5,17.41,17.41,0,0,0,1.12-6.31,17.21,17.21,0,0,0-1.12-6.23,14.7,14.7,0,0,0-3.2-5,15.46,15.46,0,0,0-5.1-3.38A18.08,18.08,0,0,0,66.89,21.71Z"/><polygon class="cls-2" points="108.41 36.64 124.17 17.63 116.74 17.63 104.73 32.52 92.64 17.63 85.31 17.63 100.97 36.64 83.21 57.74 90.58 57.74 104.66 40.75 118.98 57.74 126.48 57.74 108.41 36.64"/><rect class="cls-2" x="128.26" y="17.61" width="5.47" height="40.13"/><path class="cls-2" d="M157.92,55.65a6.47,6.47,0,0,1,0-.67V52.17l-2,.19-.3,0a4.26,4.26,0,0,1-.48,0,5.13,5.13,0,0,1-3.59-1.15c-.8-.71-1.2-2-1.2-4V22.86h7.6V17.61h-7.6v-16h-5.39v16l-7.91,0v5.24h7.91V47.32a11.62,11.62,0,0,0,2.2,7.18c1.58,2.09,4.13,3.15,7.58,3.15a10.45,10.45,0,0,0,1.45-.11l1.79-.21Z"/><path id="_Path_" data-name="&lt;Path&gt;" class="cls-1" d="M7.66,59.75s.24.23.69.63,1.14,1,2,1.7,2,1.54,3.26,2.44,2.77,1.86,4.42,2.82a60.44,60.44,0,0,0,5.47,2.81,55.59,55.59,0,0,0,6.38,2.39c1.13.33,2.28.64,3.46.91s2.38.49,3.59.68a49.53,49.53,0,0,0,7.41.52,48,48,0,0,0,7.43-.6c1.22-.2,2.41-.44,3.59-.71s2.33-.6,3.46-.94A54.75,54.75,0,0,0,65.21,70c2-.89,3.83-1.84,5.49-2.79s3.15-1.9,4.45-2.78,2.41-1.69,3.3-2.39,1.59-1.25,2.06-1.65l.7-.62a8.45,8.45,0,0,1-.55.76c-.37.49-.93,1.21-1.7,2.06s-1.73,1.87-2.91,3A51.07,51.07,0,0,1,71.88,69a48.21,48.21,0,0,1-5.41,3.49,47.25,47.25,0,0,1-6.56,3c-1.18.44-2.4.83-3.66,1.19s-2.53.65-3.84.89a44.12,44.12,0,0,1-16,.07c-1.31-.22-2.6-.52-3.85-.86S30,76.1,28.85,75.66a46.35,46.35,0,0,1-6.58-3,49.17,49.17,0,0,1-5.41-3.51,44.94,44.94,0,0,1-4.13-3.51,41.53,41.53,0,0,1-2.87-3C9.1,61.75,8.56,61,8.2,60.53S7.66,59.75,7.66,59.75Z"/><path class="cls-2" d="M131,3a4.52,4.52,0,1,0,4.51,4.52A4.53,4.53,0,0,0,131,3Z"/></g></svg>