<?xml version="1.0" encoding="utf-8"?>
<!-- Generator: Adobe Illustrator 16.0.0, SVG Export Plug-In . SVG Version: 6.00 Build 0)  -->
<!DOCTYPE svg PUBLIC "-//W3C//DTD SVG 1.1//EN" "http://www.w3.org/Graphics/SVG/1.1/DTD/svg11.dtd">
<svg version="1.1" id="Layer_1" xmlns="http://www.w3.org/2000/svg" xmlns:xlink="http://www.w3.org/1999/xlink" x="0px" y="0px"
	 width="26px" height="24px" viewBox="-1 0 26 24" enable-background="new -1 0 26 24" xml:space="preserve">
<g>
	<g>
		<path fill="#FFFFFF" d="M0.939,4.392C-0.071,4.392-1,3.464-1,2.227C-1,0.99-0.071,0,1.166,0h21.381C23.784,0,25,0.99,25,2.227
			c0,1.237-0.989,2.165-2.453,2.165H0.939z"/>
		<path fill="#FFFFFF" d="M22.773,9.773C24.011,9.773,25,10.763,25,12s-0.989,2.165-2.227,2.165H1.166C-0.071,14.165-1,13.237-1,12
			s0.929-2.227,2.166-2.227H22.773z"/>
		<path fill="#FFFFFF" d="M22.773,19.608c1.237,0,2.227,0.928,2.227,2.165S24.011,24,22.773,24H1.166C-0.071,24-1,23.011-1,21.773
			s0.929-2.165,2.166-2.165H22.773z"/>
	</g>
</g>
</svg>
